<svg xmlns="http://www.w3.org/2000/svg" width="270" height="70" fill="none" viewBox="0 0 270 70"><g filter="url(#a)"><rect width="262" height="62" x="4" y="2" fill="#fff" rx="10"/><rect width="260" height="60" x="5" y="3" stroke="#000" stroke-width="2" rx="9"/><path fill="#EA4335" d="M62.94 32.148 48.138 48.843q0 .005.003.01C48.594 50.666 50.152 52 52 52a3.8 3.8 0 0 0 2.03-.585l.047-.03L70.74 41.17z"/><path fill="#FBBC04" d="m77.918 29.305-.014-.01-7.195-4.431-8.105 7.663 8.135 8.64 7.155-4.386C79.148 36.06 80 34.655 80 33.035c0-1.61-.84-3.008-2.082-3.73"/><path fill="#4285F4" d="M48.136 17.156A4.4 4.4 0 0 0 48 18.25v29.502c0 .378.047.745.138 1.092l15.311-16.268z"/><path fill="#34A853" d="m63.127 33.242 7.579-8.388L54.24 14.287a3.7 3.7 0 0 0-2.044-.626c-1.83 0-3.373 1.379-3.822 3.248l-.002.005z"/><path fill="#000" d="M109.472 21.919h3.39v4.703q-.764.258-1.572.385-.802.126-1.798.126-1.512 0-2.553-.604a3.9 3.9 0 0 1-1.573-1.718q-.537-1.12-.537-2.66 0-1.506.591-2.627a4.2 4.2 0 0 1 1.718-1.738q1.127-.623 2.706-.623.809 0 1.532.152a6.6 6.6 0 0 1 1.353.418l-.431.982a8 8 0 0 0-1.187-.398 5.3 5.3 0 0 0-1.333-.166q-1.188 0-2.037.491-.842.491-1.293 1.386-.445.896-.445 2.123 0 1.215.392 2.116a2.97 2.97 0 0 0 1.22 1.393q.83.498 2.136.498.657 0 1.128-.073.471-.08.855-.186v-2.972h-2.262zM120.61 27h-5.4v-9.698h5.4v.995h-4.272v3.138h4.026v.981h-4.026v3.589h4.272zm5.127 0h-1.134v-8.703h-3.051v-.995h7.223v.995h-3.038zm8.033 0v-9.698h1.128V27zm6.773 0h-1.135v-8.703h-3.051v-.995h7.224v.995h-3.038zm16.443-4.862q0 1.12-.285 2.043a4.4 4.4 0 0 1-.849 1.579 3.7 3.7 0 0 1-1.386 1.014q-.83.36-1.924.359-1.127 0-1.97-.358a3.7 3.7 0 0 1-1.393-1.022 4.5 4.5 0 0 1-.829-1.585 7.2 7.2 0 0 1-.272-2.043q0-1.486.491-2.607a3.8 3.8 0 0 1 1.486-1.745q1-.623 2.507-.623 1.44 0 2.421.617.989.616 1.493 1.737.51 1.114.51 2.634m-7.721 0q0 1.233.352 2.136.351.902 1.074 1.393.73.49 1.851.49 1.128 0 1.844-.49.723-.492 1.068-1.393.345-.903.345-2.136 0-1.878-.789-2.932-.783-1.061-2.448-1.061-1.128 0-1.857.484-.73.485-1.088 1.38-.352.888-.352 2.129M166.731 27h-1.3l-5.287-8.146h-.053l.046.743q.027.412.04.883.02.464.02.948V27h-1.048v-9.698h1.293l5.267 8.12h.047a86 86 0 0 1-.073-1.58 34 34 0 0 1-.014-.921v-5.619h1.062zm29.662 24.083h2.616V33.631h-2.616zm23.565-11.165-2.999 7.566h-.089l-3.113-7.566h-2.818l4.667 10.575-2.66 5.883h2.728l7.194-16.458zM205.121 49.1c-.858 0-2.053-.426-2.053-1.483 0-1.346 1.488-1.862 2.774-1.862 1.149 0 1.692.247 2.39.584a3.166 3.166 0 0 1-3.111 2.76m.316-9.565c-1.895 0-3.858.831-4.668 2.672l2.322.965c.496-.965 1.42-1.28 2.39-1.28 1.353 0 2.729.808 2.751 2.246v.179c-.474-.27-1.487-.673-2.728-.673-2.503 0-5.052 1.37-5.052 3.929 0 2.335 2.053 3.84 4.352 3.84 1.76 0 2.73-.786 3.339-1.707h.089v1.347h2.526v-6.691c0-3.098-2.322-4.827-5.321-4.827m-16.17 2.506h-3.721v-5.98h3.721c1.956 0 3.067 1.613 3.067 2.99 0 1.353-1.111 2.992-3.067 2.992m-.067-8.41h-6.269v17.451h2.615v-6.611h3.654c2.899 0 5.75-2.092 5.75-5.421s-2.851-5.42-5.75-5.42m-34.186 15.472c-1.807 0-3.32-1.507-3.32-3.576 0-2.09 1.513-3.621 3.32-3.621 1.785 0 3.184 1.53 3.184 3.621 0 2.07-1.399 3.576-3.184 3.576m3.005-8.21h-.091c-.588-.696-1.716-1.325-3.14-1.325-2.982 0-5.715 2.607-5.715 5.96 0 3.328 2.733 5.914 5.715 5.914 1.424 0 2.552-.63 3.14-1.35h.091v.856c0 2.272-1.22 3.486-3.186 3.486-1.604 0-2.598-1.147-3.005-2.115l-2.281.945c.655 1.575 2.395 3.509 5.286 3.509 3.072 0 5.67-1.8 5.67-6.185V39.927h-2.484zm4.292 10.19h2.62V33.63h-2.62zm6.482-5.758c-.067-2.294 1.785-3.464 3.117-3.464 1.04 0 1.921.517 2.214 1.26zm8.132-1.98c-.496-1.326-2.01-3.777-5.105-3.777-3.072 0-5.624 2.405-5.624 5.937 0 3.328 2.53 5.938 5.917 5.938 2.734 0 4.316-1.665 4.971-2.632l-2.033-1.35c-.678.99-1.604 1.642-2.938 1.642-1.332 0-2.281-.608-2.891-1.798l7.974-3.285zm-63.528-1.956v2.519h6.053c-.181 1.417-.655 2.451-1.377 3.17-.882.879-2.26 1.846-4.676 1.846-3.728 0-6.642-2.992-6.642-6.703s2.914-6.702 6.642-6.702c2.011 0 3.479.787 4.563 1.8l1.785-1.778C118.23 34.103 116.221 33 113.397 33c-5.105 0-9.397 4.14-9.397 9.222 0 5.084 4.292 9.221 9.397 9.221 2.755 0 4.833-.9 6.46-2.586 1.673-1.664 2.191-4.003 2.191-5.893 0-.585-.045-1.124-.136-1.574zm15.534 7.714c-1.807 0-3.366-1.484-3.366-3.598 0-2.137 1.559-3.599 3.366-3.599 1.806 0 3.366 1.462 3.366 3.599 0 2.114-1.56 3.598-3.366 3.598m0-9.535c-3.299 0-5.987 2.496-5.987 5.937 0 3.419 2.688 5.938 5.987 5.938s5.986-2.519 5.986-5.938c0-3.441-2.688-5.937-5.986-5.937m13.059 9.535c-1.808 0-3.367-1.484-3.367-3.598 0-2.137 1.559-3.599 3.367-3.599 1.807 0 3.365 1.462 3.365 3.599 0 2.114-1.558 3.598-3.365 3.598m0-9.535c-3.298 0-5.986 2.496-5.986 5.937 0 3.419 2.688 5.938 5.986 5.938s5.985-2.519 5.985-5.938c0-3.441-2.688-5.937-5.985-5.937"/></g><defs><filter id="a" width="270" height="70" x="0" y="0" color-interpolation-filters="sRGB" filterUnits="userSpaceOnUse"><feFlood flood-opacity="0" result="BackgroundImageFix"/><feColorMatrix in="SourceAlpha" result="hardAlpha" values="0 0 0 0 0 0 0 0 0 0 0 0 0 0 0 0 0 0 127 0"/><feOffset dy="2"/><feGaussianBlur stdDeviation="2"/><feComposite in2="hardAlpha" operator="out"/><feColorMatrix values="0 0 0 0 0 0 0 0 0 0 0 0 0 0 0 0 0 0 0.25 0"/><feBlend in2="BackgroundImageFix" result="effect1_dropShadow_4001_357"/><feBlend in="SourceGraphic" in2="effect1_dropShadow_4001_357" result="shape"/></filter></defs></svg>