<svg width="270" height="70" viewBox="0 0 270 70" fill="none" xmlns="http://www.w3.org/2000/svg">
<g filter="url(#filter0_d_4001_357)">
<rect x="4" y="2" width="262" height="62" rx="10" fill="white"/>
<rect x="5" y="3" width="260" height="60" rx="9" stroke="black" stroke-width="2"/>
<path d="M62.9409 32.1477L48.1368 48.8427C48.1382 48.8457 48.1382 48.8501 48.1396 48.8531C48.5943 50.6659 50.1516 52 52.0009 52C52.7406 52 53.4344 51.7872 54.0295 51.4149L54.0768 51.3854L70.74 41.1689L62.9409 32.1477Z" fill="#EA4335"/>
<path d="M77.9175 29.3049L77.9036 29.2945L70.7094 24.8637L62.6045 32.5272L70.7386 41.1672L77.8939 36.7807C79.1481 36.0597 80.0004 34.6547 80.0004 33.0354C80.0004 31.425 79.1606 30.0273 77.9175 29.3049Z" fill="#FBBC04"/>
<path d="M48.1362 17.1561C48.0472 17.5048 47.9999 17.8712 47.9999 18.2494V47.7509C47.9999 48.1292 48.0472 48.4956 48.1376 48.8428L63.4492 32.5747L48.1362 17.1561Z" fill="#4285F4"/>
<path d="M63.1265 33.2417L70.7058 24.8539L54.2403 14.2873C53.6419 13.8899 52.9431 13.6615 52.1962 13.6615C50.3667 13.6615 48.8233 15.0395 48.3735 16.9092C48.3735 16.9107 48.3721 16.9122 48.3721 16.9137L63.1265 33.2417Z" fill="#34A853"/>
<path d="M109.472 21.9189H112.862V26.6219C112.353 26.7944 111.829 26.9226 111.29 27.0066C110.755 27.0907 110.156 27.1327 109.492 27.1327C108.484 27.1327 107.633 26.9315 106.939 26.529C106.249 26.1266 105.725 25.554 105.366 24.811C105.008 24.0637 104.829 23.177 104.829 22.1511C104.829 21.1473 105.026 20.2717 105.42 19.5243C105.818 18.777 106.39 18.1977 107.138 17.7864C107.889 17.3707 108.791 17.1629 109.844 17.1629C110.383 17.1629 110.894 17.2137 111.376 17.3154C111.863 17.4127 112.314 17.552 112.729 17.7333L112.298 18.7151C111.94 18.5603 111.544 18.4276 111.111 18.3171C110.682 18.2065 110.237 18.1512 109.778 18.1512C108.986 18.1512 108.307 18.3149 107.741 18.6421C107.18 18.9693 106.748 19.4315 106.448 20.0284C106.151 20.6254 106.003 21.333 106.003 22.1511C106.003 22.9603 106.134 23.6657 106.395 24.2671C106.656 24.8641 107.062 25.3284 107.615 25.6601C108.168 25.9917 108.88 26.1576 109.751 26.1576C110.189 26.1576 110.565 26.1333 110.879 26.0846C111.193 26.0315 111.478 25.9696 111.734 25.8989V22.9272H109.472V21.9189ZM120.61 27H115.21V17.3022H120.61V18.2972H116.338V21.4347H120.364V22.4164H116.338V26.005H120.61V27ZM125.737 27H124.603V18.2972H121.552V17.3022H128.775V18.2972H125.737V27ZM133.77 27V17.3022H134.898V27H133.77ZM140.543 27H139.408V18.2972H136.357V17.3022H143.581V18.2972H140.543V27ZM156.986 22.1378C156.986 22.8852 156.891 23.5662 156.701 24.1809C156.511 24.7911 156.228 25.3174 155.852 25.7596C155.481 26.1974 155.019 26.5357 154.466 26.7745C153.913 27.0133 153.272 27.1327 152.542 27.1327C151.79 27.1327 151.134 27.0133 150.572 26.7745C150.015 26.5357 149.551 26.1952 149.179 25.7529C148.812 25.3107 148.536 24.7823 148.35 24.1676C148.169 23.5529 148.078 22.8719 148.078 22.1246C148.078 21.134 148.242 20.265 148.569 19.5177C148.896 18.7703 149.391 18.1888 150.055 17.7731C150.722 17.3575 151.558 17.1496 152.562 17.1496C153.522 17.1496 154.329 17.3552 154.983 17.7665C155.642 18.1778 156.14 18.7571 156.476 19.5044C156.816 20.2473 156.986 21.1251 156.986 22.1378ZM149.265 22.1378C149.265 22.9603 149.383 23.6723 149.617 24.2737C149.851 24.8751 150.209 25.3395 150.691 25.6667C151.178 25.994 151.795 26.1576 152.542 26.1576C153.294 26.1576 153.909 25.994 154.386 25.6667C154.868 25.3395 155.224 24.8751 155.454 24.2737C155.684 23.6723 155.799 22.9603 155.799 22.1378C155.799 20.8864 155.536 19.9091 155.01 19.2059C154.488 18.4984 153.672 18.1446 152.562 18.1446C151.81 18.1446 151.191 18.306 150.705 18.6288C150.218 18.9517 149.856 19.4116 149.617 20.0085C149.383 20.6011 149.265 21.3109 149.265 22.1378ZM166.731 27H165.431L160.144 18.8544H160.091C160.104 19.071 160.12 19.3187 160.137 19.5973C160.155 19.8715 160.168 20.1655 160.177 20.4795C160.19 20.7891 160.197 21.1052 160.197 21.4281V27H159.149V17.3022H160.442L165.709 25.4213H165.756C165.747 25.2665 165.736 25.0476 165.722 24.7646C165.709 24.4772 165.696 24.1698 165.683 23.8426C165.674 23.5109 165.669 23.2036 165.669 22.9205V17.3022H166.731V27Z" fill="black"/>
<path d="M196.393 51.0833H199.009V33.6311H196.393V51.0833ZM219.958 39.9176L216.959 47.4843H216.87L213.757 39.9176H210.939L215.606 50.4928L212.946 56.3758H215.674L222.868 39.9176H219.958ZM205.121 49.1009C204.263 49.1009 203.068 48.6751 203.068 47.6183C203.068 46.2725 204.556 45.7559 205.842 45.7559C206.991 45.7559 207.534 46.003 208.232 46.3395C208.029 47.9561 206.631 49.1009 205.121 49.1009ZM205.437 39.5365C203.542 39.5365 201.579 40.3671 200.769 42.2085L203.091 43.1732C203.587 42.2085 204.511 41.893 205.481 41.893C206.834 41.893 208.21 42.7013 208.232 44.1393V44.318C207.758 44.0486 206.745 43.6451 205.504 43.6451C203.001 43.6451 200.452 45.0146 200.452 47.5736C200.452 49.9092 202.505 51.4142 204.804 51.4142C206.564 51.4142 207.534 50.6282 208.143 49.7068H208.232V51.054H210.758V44.3627C210.758 41.2648 208.436 39.5365 205.437 39.5365ZM189.267 42.0424H185.546V36.0603H189.267C191.223 36.0603 192.334 37.6727 192.334 39.0506C192.334 40.4034 191.223 42.0424 189.267 42.0424ZM189.2 33.6311H182.931V51.0833H185.546V44.4716H189.2C192.099 44.4716 194.95 42.3803 194.95 39.0506C194.95 35.721 192.099 33.6311 189.2 33.6311ZM155.014 49.1037C153.207 49.1037 151.694 47.5973 151.694 45.5284C151.694 43.4371 153.207 41.907 155.014 41.907C156.799 41.907 158.198 43.4371 158.198 45.5284C158.198 47.5973 156.799 49.1037 155.014 49.1037ZM158.019 40.8948H157.928C157.34 40.1982 156.212 39.5686 154.788 39.5686C151.806 39.5686 149.073 42.1764 149.073 45.5284C149.073 48.8566 151.806 51.4435 154.788 51.4435C156.212 51.4435 157.34 50.8139 157.928 50.0935H158.019V50.9493C158.019 53.2207 156.799 54.4353 154.833 54.4353C153.229 54.4353 152.235 53.2877 151.828 52.3202L149.547 53.2654C150.202 54.8401 151.942 56.7737 154.833 56.7737C157.905 56.7737 160.503 54.9742 160.503 50.5891V39.9274H158.019V40.8948ZM162.311 51.0833H164.931V33.6297H162.311V51.0833ZM168.793 45.326C168.726 43.0322 170.578 41.8623 171.91 41.8623C172.95 41.8623 173.831 42.3789 174.124 43.1216L168.793 45.326ZM176.925 43.3463C176.429 42.0201 174.915 39.5686 171.82 39.5686C168.748 39.5686 166.196 41.974 166.196 45.506C166.196 48.8343 168.726 51.4435 172.113 51.4435C174.847 51.4435 176.429 49.7794 177.084 48.8119L175.051 47.4619C174.373 48.4517 173.447 49.1037 172.113 49.1037C170.781 49.1037 169.832 48.4964 169.222 47.3056L177.196 44.0206L176.925 43.3463ZM113.397 41.3904V43.9089H119.45C119.269 45.326 118.795 46.3604 118.073 47.0794C117.191 47.9575 115.813 48.925 113.397 48.925C109.669 48.925 106.755 45.9332 106.755 42.2225C106.755 38.5104 109.669 35.52 113.397 35.52C115.408 35.52 116.876 36.3074 117.96 37.3195L119.745 35.5423C118.23 34.103 116.221 33.0001 113.397 33.0001C108.292 33.0001 104 37.1394 104 42.2225C104 47.3056 108.292 51.4435 113.397 51.4435C116.152 51.4435 118.23 50.543 119.857 48.8566C121.53 47.1925 122.048 44.8541 122.048 42.9638C122.048 42.3789 122.003 41.84 121.912 41.3904H113.397ZM128.931 49.1037C127.124 49.1037 125.565 47.6197 125.565 45.506C125.565 43.3687 127.124 41.907 128.931 41.907C130.737 41.907 132.297 43.3687 132.297 45.506C132.297 47.6197 130.737 49.1037 128.931 49.1037ZM128.931 39.5686C125.632 39.5686 122.944 42.0647 122.944 45.506C122.944 48.925 125.632 51.4435 128.931 51.4435C132.229 51.4435 134.917 48.925 134.917 45.506C134.917 42.0647 132.229 39.5686 128.931 39.5686ZM141.99 49.1037C140.182 49.1037 138.623 47.6197 138.623 45.506C138.623 43.3687 140.182 41.907 141.99 41.907C143.797 41.907 145.355 43.3687 145.355 45.506C145.355 47.6197 143.797 49.1037 141.99 49.1037ZM141.99 39.5686C138.692 39.5686 136.004 42.0647 136.004 45.506C136.004 48.925 138.692 51.4435 141.99 51.4435C145.287 51.4435 147.975 48.925 147.975 45.506C147.975 42.0647 145.287 39.5686 141.99 39.5686Z" fill="black"/>
</g>
<defs>
<filter id="filter0_d_4001_357" x="0" y="0" width="270" height="70" filterUnits="userSpaceOnUse" color-interpolation-filters="sRGB">
<feFlood flood-opacity="0" result="BackgroundImageFix"/>
<feColorMatrix in="SourceAlpha" type="matrix" values="0 0 0 0 0 0 0 0 0 0 0 0 0 0 0 0 0 0 127 0" result="hardAlpha"/>
<feOffset dy="2"/>
<feGaussianBlur stdDeviation="2"/>
<feComposite in2="hardAlpha" operator="out"/>
<feColorMatrix type="matrix" values="0 0 0 0 0 0 0 0 0 0 0 0 0 0 0 0 0 0 0.25 0"/>
<feBlend mode="normal" in2="BackgroundImageFix" result="effect1_dropShadow_4001_357"/>
<feBlend mode="normal" in="SourceGraphic" in2="effect1_dropShadow_4001_357" result="shape"/>
</filter>
</defs>
</svg>