<svg xmlns="http://www.w3.org/2000/svg" style="display: none;">
<defs>
<symbol id="icon-menu" viewBox="0 0 28 38">
  <path d="M25.7895 25.8292C26.3572 25.8296 26.903 26.0933 27.3138 26.5657C27.7247 27.0381 27.9691 27.683 27.9964 28.3667C28.0236 29.0505 27.8317 29.7207 27.4604 30.2385C27.089 30.7563 26.5667 31.0819 26.0017 31.148L25.7895 31.1604H2.21053C1.64284 31.1601 1.09702 30.8964 0.686167 30.424C0.275316 29.9516 0.0309296 29.3067 0.00364846 28.6229C-0.0236327 27.9392 0.168283 27.269 0.539627 26.7512C0.910971 26.2334 1.43328 25.9077 1.99832 25.8417L2.21053 25.8292H25.7895ZM25.7895 13.3898C26.3757 13.3898 26.938 13.6707 27.3526 14.1706C27.7671 14.6705 28 15.3485 28 16.0554C28 16.7624 27.7671 17.4404 27.3526 17.9403C26.938 18.4402 26.3757 18.721 25.7895 18.721H2.21053C1.62426 18.721 1.062 18.4402 0.647448 17.9403C0.232894 17.4404 0 16.7624 0 16.0554C0 15.3485 0.232894 14.6705 0.647448 14.1706C1.062 13.6707 1.62426 13.3898 2.21053 13.3898H25.7895ZM25.7895 0.950413C26.3757 0.950413 26.938 1.23125 27.3526 1.73115C27.7671 2.23104 28 2.90904 28 3.616C28 4.32296 27.7671 5.00096 27.3526 5.50086C26.938 6.00075 26.3757 6.28159 25.7895 6.28159H2.21053C1.62426 6.28159 1.062 6.00075 0.647448 5.50086C0.232894 5.00096 0 4.32296 0 3.616C0 2.90904 0.232894 2.23104 0.647448 1.73115C1.062 1.23125 1.62426 0.950413 2.21053 0.950413H25.7895Z" fill="#D58D00" />
</symbol>
<symbol id="icon-close" viewBox="0 0 32 32">
  <path d="M6.66663 6.66669L16 16M16 16L25.3333 6.66669M16 16L6.66663 25.3334M16 16L25.3333 25.3334" stroke="#FBFBFB" stroke-width="2.66667" stroke-linecap="round" stroke-linejoin="round" />
</symbol>
</defs>
</svg>